<mxfile host="Electron" agent="Mozilla/5.0 (Windows NT 10.0; Win64; x64) AppleWebKit/537.36 (KHTML, like Gecko) draw.io/28.1.2 Chrome/138.0.7204.243 Electron/37.4.0 Safari/537.36" version="28.1.2">
  <diagram name="Страница — 1" id="Vnin3sQENTHUpLPwx_TD">
    <mxGraphModel dx="1967" dy="698" grid="1" gridSize="10" guides="1" tooltips="1" connect="1" arrows="1" fold="1" page="1" pageScale="1" pageWidth="827" pageHeight="1169" math="0" shadow="0">
      <root>
        <mxCell id="0" />
        <mxCell id="1" parent="0" />
        <mxCell id="ljUSq7lXMS9rkcpiTzJK-1" value="Генеральный директор(1)" style="rounded=0;whiteSpace=wrap;html=1;" parent="1" vertex="1">
          <mxGeometry x="494" y="20" width="120" height="60" as="geometry" />
        </mxCell>
        <mxCell id="ljUSq7lXMS9rkcpiTzJK-2" value="Замееститель ген.дир. по работе с заказчивками(1)" style="rounded=0;whiteSpace=wrap;html=1;" parent="1" vertex="1">
          <mxGeometry x="-240" y="200" width="120" height="60" as="geometry" />
        </mxCell>
        <mxCell id="ljUSq7lXMS9rkcpiTzJK-3" value="Замееститель ген.дир. по аналитической работе(1)" style="rounded=0;whiteSpace=wrap;html=1;fontStyle=0" parent="1" vertex="1">
          <mxGeometry x="50" y="200" width="120" height="60" as="geometry" />
        </mxCell>
        <mxCell id="ljUSq7lXMS9rkcpiTzJK-4" value="Замееститель ген.дир. по кадровой работе(1)&amp;nbsp;" style="rounded=0;whiteSpace=wrap;html=1;fontStyle=0" parent="1" vertex="1">
          <mxGeometry x="494" y="200" width="120" height="60" as="geometry" />
        </mxCell>
        <mxCell id="w88dgKDv570MLyg0f8sF-1" value="Замееститель ген.дир. по разарботке (1)" style="rounded=0;whiteSpace=wrap;html=1;fontStyle=0" parent="1" vertex="1">
          <mxGeometry x="950" y="200" width="120" height="60" as="geometry" />
        </mxCell>
        <mxCell id="w88dgKDv570MLyg0f8sF-3" value="Старшый менеджер кадров(1)" style="rounded=0;whiteSpace=wrap;html=1;" parent="1" vertex="1">
          <mxGeometry x="494" y="310" width="120" height="60" as="geometry" />
        </mxCell>
        <mxCell id="w88dgKDv570MLyg0f8sF-5" value="Замееститель ген.дир. по поддержке" style="rounded=0;whiteSpace=wrap;html=1;fontStyle=0" parent="1" vertex="1">
          <mxGeometry x="1310" y="200" width="120" height="60" as="geometry" />
        </mxCell>
        <mxCell id="w88dgKDv570MLyg0f8sF-6" value="Кадровыев специалиты (3)" style="rounded=0;whiteSpace=wrap;html=1;" parent="1" vertex="1">
          <mxGeometry x="494" y="420" width="120" height="60" as="geometry" />
        </mxCell>
        <mxCell id="w88dgKDv570MLyg0f8sF-7" value="Старшиый фин.аналитик(1)" style="rounded=0;whiteSpace=wrap;html=1;" parent="1" vertex="1">
          <mxGeometry x="120" y="310" width="120" height="60" as="geometry" />
        </mxCell>
        <mxCell id="w88dgKDv570MLyg0f8sF-9" value="Сепциалист ОТ(1)" style="rounded=0;whiteSpace=wrap;html=1;fontStyle=0" parent="1" vertex="1">
          <mxGeometry x="334" y="310" width="120" height="60" as="geometry" />
        </mxCell>
        <mxCell id="w88dgKDv570MLyg0f8sF-10" value="Главный бухгалтер(1)" style="rounded=0;whiteSpace=wrap;html=1;" parent="1" vertex="1">
          <mxGeometry x="650" y="310" width="120" height="60" as="geometry" />
        </mxCell>
        <mxCell id="w88dgKDv570MLyg0f8sF-11" value="Старший юр. консультант(1)" style="rounded=0;whiteSpace=wrap;html=1;" parent="1" vertex="1">
          <mxGeometry x="-50" y="310" width="120" height="60" as="geometry" />
        </mxCell>
        <mxCell id="w88dgKDv570MLyg0f8sF-14" value="Младшие фин.аналитики (6)" style="rounded=0;whiteSpace=wrap;html=1;" parent="1" vertex="1">
          <mxGeometry x="120" y="420" width="120" height="60" as="geometry" />
        </mxCell>
        <mxCell id="w88dgKDv570MLyg0f8sF-15" value="Глава отдела разработки(1)" style="rounded=0;whiteSpace=wrap;html=1;fontStyle=0" parent="1" vertex="1">
          <mxGeometry x="855" y="310" width="120" height="60" as="geometry" />
        </mxCell>
        <mxCell id="w88dgKDv570MLyg0f8sF-16" value="Галва отдела тестирования(1)" style="rounded=0;whiteSpace=wrap;html=1;fontStyle=0" parent="1" vertex="1">
          <mxGeometry x="1045" y="310" width="120" height="60" as="geometry" />
        </mxCell>
        <mxCell id="w88dgKDv570MLyg0f8sF-17" value="Тестировщики (3)" style="rounded=0;whiteSpace=wrap;html=1;" parent="1" vertex="1">
          <mxGeometry x="1045" y="420" width="120" height="60" as="geometry" />
        </mxCell>
        <mxCell id="w88dgKDv570MLyg0f8sF-19" value="Разработчики ПО(6)" style="rounded=0;whiteSpace=wrap;html=1;" parent="1" vertex="1">
          <mxGeometry x="855" y="420" width="120" height="60" as="geometry" />
        </mxCell>
        <mxCell id="w88dgKDv570MLyg0f8sF-20" value="Менеджеры поддержки (5)" style="rounded=0;whiteSpace=wrap;html=1;" parent="1" vertex="1">
          <mxGeometry x="1310" y="310" width="120" height="60" as="geometry" />
        </mxCell>
        <mxCell id="w88dgKDv570MLyg0f8sF-21" value="" style="endArrow=classic;html=1;rounded=0;exitX=0.5;exitY=1;exitDx=0;exitDy=0;entryX=0.5;entryY=0;entryDx=0;entryDy=0;" parent="1" source="ljUSq7lXMS9rkcpiTzJK-1" target="ljUSq7lXMS9rkcpiTzJK-2" edge="1">
          <mxGeometry width="50" height="50" relative="1" as="geometry">
            <mxPoint x="410" y="310" as="sourcePoint" />
            <mxPoint x="460" y="260" as="targetPoint" />
            <Array as="points">
              <mxPoint x="554" y="160" />
              <mxPoint x="-180" y="160" />
            </Array>
          </mxGeometry>
        </mxCell>
        <mxCell id="w88dgKDv570MLyg0f8sF-22" value="" style="endArrow=classic;html=1;rounded=0;exitX=0.5;exitY=1;exitDx=0;exitDy=0;entryX=0.5;entryY=0;entryDx=0;entryDy=0;" parent="1" source="ljUSq7lXMS9rkcpiTzJK-1" target="ljUSq7lXMS9rkcpiTzJK-3" edge="1">
          <mxGeometry width="50" height="50" relative="1" as="geometry">
            <mxPoint x="410" y="310" as="sourcePoint" />
            <mxPoint x="460" y="260" as="targetPoint" />
            <Array as="points">
              <mxPoint x="554" y="160" />
              <mxPoint x="110" y="160" />
            </Array>
          </mxGeometry>
        </mxCell>
        <mxCell id="w88dgKDv570MLyg0f8sF-23" value="" style="endArrow=classic;html=1;rounded=0;exitX=0.5;exitY=1;exitDx=0;exitDy=0;entryX=0.5;entryY=0;entryDx=0;entryDy=0;" parent="1" source="ljUSq7lXMS9rkcpiTzJK-1" target="ljUSq7lXMS9rkcpiTzJK-4" edge="1">
          <mxGeometry width="50" height="50" relative="1" as="geometry">
            <mxPoint x="410" y="310" as="sourcePoint" />
            <mxPoint x="460" y="260" as="targetPoint" />
          </mxGeometry>
        </mxCell>
        <mxCell id="w88dgKDv570MLyg0f8sF-24" value="" style="endArrow=classic;html=1;rounded=0;exitX=0.5;exitY=1;exitDx=0;exitDy=0;entryX=0.5;entryY=0;entryDx=0;entryDy=0;" parent="1" source="ljUSq7lXMS9rkcpiTzJK-1" target="w88dgKDv570MLyg0f8sF-1" edge="1">
          <mxGeometry width="50" height="50" relative="1" as="geometry">
            <mxPoint x="780" y="290" as="sourcePoint" />
            <mxPoint x="830" y="240" as="targetPoint" />
            <Array as="points">
              <mxPoint x="554" y="160" />
              <mxPoint x="1010" y="160" />
            </Array>
          </mxGeometry>
        </mxCell>
        <mxCell id="w88dgKDv570MLyg0f8sF-26" value="" style="endArrow=classic;html=1;rounded=0;exitX=0.5;exitY=1;exitDx=0;exitDy=0;entryX=0.5;entryY=0;entryDx=0;entryDy=0;" parent="1" source="ljUSq7lXMS9rkcpiTzJK-1" target="w88dgKDv570MLyg0f8sF-5" edge="1">
          <mxGeometry width="50" height="50" relative="1" as="geometry">
            <mxPoint x="780" y="290" as="sourcePoint" />
            <mxPoint x="830" y="240" as="targetPoint" />
            <Array as="points">
              <mxPoint x="554" y="160" />
              <mxPoint x="1370" y="160" />
            </Array>
          </mxGeometry>
        </mxCell>
        <mxCell id="w88dgKDv570MLyg0f8sF-27" value="" style="endArrow=classic;html=1;rounded=0;exitX=0.5;exitY=1;exitDx=0;exitDy=0;entryX=0.5;entryY=0;entryDx=0;entryDy=0;" parent="1" source="ljUSq7lXMS9rkcpiTzJK-3" target="w88dgKDv570MLyg0f8sF-11" edge="1">
          <mxGeometry width="50" height="50" relative="1" as="geometry">
            <mxPoint x="170" y="430" as="sourcePoint" />
            <mxPoint x="220" y="380" as="targetPoint" />
          </mxGeometry>
        </mxCell>
        <mxCell id="w88dgKDv570MLyg0f8sF-28" value="" style="endArrow=classic;html=1;rounded=0;exitX=0.5;exitY=1;exitDx=0;exitDy=0;entryX=0.5;entryY=0;entryDx=0;entryDy=0;" parent="1" source="ljUSq7lXMS9rkcpiTzJK-3" target="w88dgKDv570MLyg0f8sF-7" edge="1">
          <mxGeometry width="50" height="50" relative="1" as="geometry">
            <mxPoint x="150" y="470" as="sourcePoint" />
            <mxPoint x="50" y="520" as="targetPoint" />
          </mxGeometry>
        </mxCell>
        <mxCell id="w88dgKDv570MLyg0f8sF-29" value="" style="endArrow=classic;html=1;rounded=0;exitX=0.5;exitY=1;exitDx=0;exitDy=0;entryX=0.5;entryY=0;entryDx=0;entryDy=0;" parent="1" source="w88dgKDv570MLyg0f8sF-7" target="w88dgKDv570MLyg0f8sF-14" edge="1">
          <mxGeometry width="50" height="50" relative="1" as="geometry">
            <mxPoint x="170" y="430" as="sourcePoint" />
            <mxPoint x="220" y="380" as="targetPoint" />
          </mxGeometry>
        </mxCell>
        <mxCell id="w88dgKDv570MLyg0f8sF-30" value="" style="endArrow=classic;html=1;rounded=0;exitX=0.5;exitY=1;exitDx=0;exitDy=0;entryX=0.5;entryY=0;entryDx=0;entryDy=0;" parent="1" source="ljUSq7lXMS9rkcpiTzJK-4" target="w88dgKDv570MLyg0f8sF-9" edge="1">
          <mxGeometry width="50" height="50" relative="1" as="geometry">
            <mxPoint x="170" y="430" as="sourcePoint" />
            <mxPoint x="220" y="380" as="targetPoint" />
          </mxGeometry>
        </mxCell>
        <mxCell id="w88dgKDv570MLyg0f8sF-31" value="" style="endArrow=classic;html=1;rounded=0;exitX=0.5;exitY=1;exitDx=0;exitDy=0;entryX=0.5;entryY=0;entryDx=0;entryDy=0;" parent="1" source="ljUSq7lXMS9rkcpiTzJK-4" target="w88dgKDv570MLyg0f8sF-3" edge="1">
          <mxGeometry width="50" height="50" relative="1" as="geometry">
            <mxPoint x="360" y="430" as="sourcePoint" />
            <mxPoint x="410" y="380" as="targetPoint" />
          </mxGeometry>
        </mxCell>
        <mxCell id="w88dgKDv570MLyg0f8sF-32" value="" style="endArrow=classic;html=1;rounded=0;exitX=0.5;exitY=1;exitDx=0;exitDy=0;entryX=0.5;entryY=0;entryDx=0;entryDy=0;" parent="1" source="ljUSq7lXMS9rkcpiTzJK-4" target="w88dgKDv570MLyg0f8sF-10" edge="1">
          <mxGeometry width="50" height="50" relative="1" as="geometry">
            <mxPoint x="780" y="500" as="sourcePoint" />
            <mxPoint x="680" y="550" as="targetPoint" />
          </mxGeometry>
        </mxCell>
        <mxCell id="w88dgKDv570MLyg0f8sF-33" value="" style="endArrow=classic;html=1;rounded=0;exitX=0.5;exitY=1;exitDx=0;exitDy=0;entryX=0.5;entryY=0;entryDx=0;entryDy=0;" parent="1" source="w88dgKDv570MLyg0f8sF-3" target="w88dgKDv570MLyg0f8sF-6" edge="1">
          <mxGeometry width="50" height="50" relative="1" as="geometry">
            <mxPoint x="760" y="730" as="sourcePoint" />
            <mxPoint x="660" y="780" as="targetPoint" />
          </mxGeometry>
        </mxCell>
        <mxCell id="w88dgKDv570MLyg0f8sF-34" value="" style="endArrow=classic;html=1;rounded=0;exitX=0.5;exitY=1;exitDx=0;exitDy=0;entryX=0.5;entryY=0;entryDx=0;entryDy=0;" parent="1" source="w88dgKDv570MLyg0f8sF-1" target="w88dgKDv570MLyg0f8sF-15" edge="1">
          <mxGeometry width="50" height="50" relative="1" as="geometry">
            <mxPoint x="1430" y="480" as="sourcePoint" />
            <mxPoint x="1330" y="530" as="targetPoint" />
          </mxGeometry>
        </mxCell>
        <mxCell id="w88dgKDv570MLyg0f8sF-35" value="" style="endArrow=classic;html=1;rounded=0;exitX=0.5;exitY=1;exitDx=0;exitDy=0;entryX=0.5;entryY=0;entryDx=0;entryDy=0;" parent="1" source="w88dgKDv570MLyg0f8sF-1" target="w88dgKDv570MLyg0f8sF-16" edge="1">
          <mxGeometry width="50" height="50" relative="1" as="geometry">
            <mxPoint x="1400" y="520" as="sourcePoint" />
            <mxPoint x="1300" y="570" as="targetPoint" />
          </mxGeometry>
        </mxCell>
        <mxCell id="w88dgKDv570MLyg0f8sF-36" value="" style="endArrow=classic;html=1;rounded=0;exitX=0.5;exitY=1;exitDx=0;exitDy=0;entryX=0.5;entryY=0;entryDx=0;entryDy=0;" parent="1" source="w88dgKDv570MLyg0f8sF-15" target="w88dgKDv570MLyg0f8sF-19" edge="1">
          <mxGeometry width="50" height="50" relative="1" as="geometry">
            <mxPoint x="1400" y="490" as="sourcePoint" />
            <mxPoint x="1300" y="540" as="targetPoint" />
          </mxGeometry>
        </mxCell>
        <mxCell id="w88dgKDv570MLyg0f8sF-37" value="" style="endArrow=classic;html=1;rounded=0;exitX=0.5;exitY=1;exitDx=0;exitDy=0;entryX=0.5;entryY=0;entryDx=0;entryDy=0;" parent="1" source="w88dgKDv570MLyg0f8sF-16" target="w88dgKDv570MLyg0f8sF-17" edge="1">
          <mxGeometry width="50" height="50" relative="1" as="geometry">
            <mxPoint x="1520" y="570" as="sourcePoint" />
            <mxPoint x="1420" y="620" as="targetPoint" />
          </mxGeometry>
        </mxCell>
        <mxCell id="w88dgKDv570MLyg0f8sF-38" value="" style="endArrow=classic;html=1;rounded=0;exitX=0.5;exitY=1;exitDx=0;exitDy=0;entryX=0.5;entryY=0;entryDx=0;entryDy=0;" parent="1" source="w88dgKDv570MLyg0f8sF-5" target="w88dgKDv570MLyg0f8sF-20" edge="1">
          <mxGeometry width="50" height="50" relative="1" as="geometry">
            <mxPoint x="1400" y="490" as="sourcePoint" />
            <mxPoint x="1300" y="540" as="targetPoint" />
          </mxGeometry>
        </mxCell>
      </root>
    </mxGraphModel>
  </diagram>
</mxfile>
